<?xml version="1.0" encoding="UTF-8"?>
<svg xmlns="http://www.w3.org/2000/svg" xmlns:xlink="http://www.w3.org/1999/xlink" version="1.1" x="0" y="0" width="12in" height="12in" viewBox="0 0 864 864">
    <path stroke="#a8034d" fill-opacity="0.0000" d="M 714.8520,150.4944 C 715.5720,166.5072 695.3616,170.1864 686.8152,157.2192 C 681.1920,145.8576 685.7712,132.7320 
697.2696,128.6784 C 699.6089,125.2627 703.5377,123.0234 707.9895,123.0234 C 715.1642,123.0234 720.9804,128.8397 
720.9804,136.0144 C 720.9804,136.8334 720.9046,137.6348 720.7604,138.4078 C 721.4505,138.2826 722.1729,138.2200 
722.9099,138.2200 C 729.9427,138.2200 735.6440,143.9213 735.6440,150.9542 C 735.6440,154.9603 733.7941,158.5343 
730.9020,160.8685 C 733.5061,163.0642 735.1558,166.3462 735.1558,170.0134 C 735.1558,176.6221 729.7984,181.9795 
723.1898,181.9795 C 720.4305,181.9795 717.8894,181.0455 715.8654,179.4767 C 716.5606,180.9582 716.9456,182.6176 
716.9456,184.3669 C 716.9456,190.8110 711.7216,196.0350 705.2775,196.0350 C 700.8119,196.0350 696.9322,193.5264 
694.9713,189.8424 C 693.1301,191.3229 690.7890,192.2084 688.2411,192.2084 C 682.2980,192.2084 677.4801,187.3906 
677.4801,181.4474 C 677.4801,180.0582 677.7434,178.7305 678.2220,177.5131 C 676.3533,179.0787 673.9433,180.0186 
671.3138,180.0186 C 665.3509,180.0186 660.5169,175.1847 660.5169,169.2218 C 660.5169,167.1065 661.1252,165.1334 
662.1761,163.4680 C 661.7666,163.5209 661.3434,163.5470 660.9140,163.5470 C 655.1808,163.5470 650.5331,158.8993 
650.5331,153.1661 C 650.5331,147.6896 654.7740,143.2036 660.1482,142.8131 C 654.8650,142.4912 650.6814,138.1111 
650.6814,132.7539 C 650.6814,127.1927 655.1897,122.6845 660.7508,122.6845 C 661.5632,122.6845 662.3531,122.7807 
663.1070,122.9617 C 662.3457,121.4257 661.9208,119.6924 661.9208,117.8599 C 661.9208,111.4524 667.1151,106.2581 
673.5226,106.2581 C 676.6861,106.2581 679.5538,107.5242 681.6467,109.5773 C 681.6294,109.3375 681.6215,109.0925 
681.6215,108.8456 C 681.6215,102.6132 686.6738,97.5608 692.9062,97.5608 C 697.7959,97.5608 701.9593,100.6708 
703.5254,105.0186 C 705.9801,100.9344 710.4529,98.2045 715.5632,98.2045 C 722.9157,98.2045 728.9484,103.8553 
729.5548,111.0470 C 731.9429,108.8020 735.1559,107.4219 738.6912,107.4219 C 746.0329,107.4219 751.9845,113.3735 
751.9845,120.7152 C 751.9845,122.2056 751.7392,123.6388 751.2877,124.9738 C 751.5350,124.9534 751.7921,124.9450 
752.0511,124.9450 C 758.5744,124.9450 763.8626,130.2332 763.8626,136.7566 C 763.8626,140.9474 761.6801,144.6284 
758.3902,146.7247 C 764.3124,147.2503 768.9503,152.2220 768.9503,158.2769 C 768.9503,164.0723 764.7016,168.8753 
759.1527,169.7404 C 763.0973,171.9403 765.7662,176.1580 765.7662,180.9991 C 765.7662,188.1176 759.9955,193.8884 
752.8769,193.8884 C 751.3792,193.8884 749.9411,193.6329 748.6063,193.1640 C 750.5322,195.4457 751.6936,198.3907 
751.6936,201.6070 C 751.6936,208.8276 745.8400,214.6812 738.6194,214.6812 C 735.6039,214.6812 732.8268,213.6603 
730.6151,211.9454 C 730.6331,212.1835 730.6395,212.4333 730.6395,212.6846 C 730.6395,220.6959 724.1451,227.1903 
716.1338,227.1903 C 711.4415,227.1903 707.2697,224.9624 704.6184,221.5069 C 703.3169,227.4882 697.9975,231.9576 
691.6343,231.9576 C 685.1624,231.9576 679.7704,227.3344 678.5814,221.2145 C 676.3995,223.9035 673.0645,225.6284 
669.3267,225.6284 C 662.7606,225.6284 657.4378,220.3055 657.4378,213.7395 C 657.4378,212.8812 657.5287,212.0442 
657.7007,211.2410 C 655.4820,213.2445 652.5496,214.4653 649.3321,214.4653 C 642.4574,214.4653 636.8844,208.8923 
636.8844,202.0177 C 636.8844,200.2260 637.2630,198.5228 637.9437,196.9851 C 636.7094,197.3903 635.3733,197.6025 
633.9876,197.6025 C 626.6529,197.6025 620.7070,191.6565 620.7070,184.3218 C 620.7070,180.4732 622.3441,177.0069 
624.9599,174.5814 C 617.6803,174.1525 611.9176,168.1230 611.9176,160.7476 C 611.9176,155.3649 614.9870,150.6990 
619.4699,148.4055 C 615.7287,145.6737 613.2968,141.2512 613.2968,136.2608 C 613.2968,127.9588 620.0269,121.2287 
628.3289,121.2287 C 628.8412,121.2287 629.3476,121.2543 629.8423,121.3039 C 627.6136,118.8434 626.2567,115.5782 
626.2567,111.9961 C 626.2567,104.3299 632.4714,98.1153 640.1375,98.1153 C 642.1519,98.1153 644.0660,98.5444 645.7918,99.3154 
C 645.6714,98.5528 645.6117,97.7611 645.6117,96.9554 C 645.6117,88.1453 652.7536,81.0033 661.5637,81.0033 C 664.8371,81.0033 
667.8802,81.9892 670.4118,83.6801 C 672.1627,75.6288 679.3146,69.6170 687.8706,69.6170 C 693.2663,69.6170 698.1036,72.0079 
701.3808,75.7880 C 703.9379,70.5809 709.2956,66.9979 715.4902,66.9979 C 723.3310,66.9979 729.8311,72.7383 731.0163,80.2408 C 
733.8808,77.5786 737.7258,75.9432 741.9528,75.9432 C 750.8096,75.9432 757.9895,83.1231 757.9895,91.9800 C 757.9895,93.0289 
757.8888,94.0543 757.6975,95.0422 C 759.8735,93.8084 762.3895,93.1078 765.0691,93.1078 C 773.3766,93.1078 780.1111,99.8423 
780.1111,108.1498 C 780.1111,111.0004 779.3182,113.6659 777.9411,115.9369 C 779.0821,115.6461 780.2889,115.4956 
781.5310,115.4956 C 789.8405,115.4956 796.5768,122.2318 796.5768,130.5414 C 796.5768,135.1764 794.4809,139.3219 
791.1853,142.0818 C 799.0319,143.3121 805.0192,150.0874 805.0192,158.2612 C 805.0192,164.8448 801.1349,170.5211 
795.5347,173.1228 C 801.7131,175.1713 806.1660,180.9952 806.1660,187.8592 C 806.1660,196.2483 799.5144,203.0839 
791.1999,203.3795 C 794.4764,205.8851 796.5944,209.8345 796.5944,214.2787 C 796.5944,221.8381 790.4663,227.9662 
782.9069,227.9662 C 781.5150,227.9662 780.1716,227.7584 778.9092,227.3732 C 780.5762,229.7101 781.5551,232.5682 
781.5551,235.6549 C 781.5551,243.5452 775.1589,249.9414 767.2686,249.9414 C 763.9213,249.9414 760.8429,248.7903 
758.4078,246.8623 C 758.4663,247.4103 758.4969,247.9705 758.4969,248.5379 C 758.4969,257.0582 751.5898,263.9654 
743.0695,263.9654 C 738.1911,263.9654 733.8415,261.7011 731.0146,258.1662 C 730.6069,265.9393 724.1810,272.1094 
716.3139,272.1094 C 710.8409,272.1094 706.0654,269.1231 703.5283,264.6920 C 701.6700,271.3180 695.5847,276.1698 
688.3663,276.1698 C 682.5966,276.1698 677.5509,273.0700 674.8041,268.4458 C 671.8534,271.8960 667.4621,274.0884 
662.5586,274.0884 C 653.6681,274.0884 646.4609,266.8811 646.4609,257.9906 C 646.4609,257.6040 646.4745,257.2206 
646.5010,256.8449 C 644.0509,260.5063 639.8776,262.9143 635.1419,262.9143 C 627.5916,262.9143 621.4709,256.7936 
621.4709,249.2434 C 621.4709,248.7899 621.4930,248.3415 621.5358,247.9033 C 619.8739,248.4701 618.0857,248.7741 
616.2265,248.7741 C 607.0105,248.7741 599.5395,241.3031 599.5395,232.0871 C 599.5395,229.1759 600.2850,226.4388 
601.5949,224.0574 C 599.5500,224.9281 597.2982,225.4068 594.9347,225.4068 C 585.4740,225.4068 577.8046,217.7374 
577.8046,208.2767 C 577.8046,203.2534 579.9668,198.7351 583.4113,195.6017 C 574.3111,195.0007 567.1267,187.4432 
567.1267,178.2078 C 567.1267,170.0840 572.6857,163.2585 580.2027,161.3290 C 572.2062,159.9270 566.1321,152.9476 
566.1321,144.5496 C 566.1321,136.7527 571.3677,130.1786 578.5108,128.1524 C 574.8660,124.6364 572.5917,119.7014 
572.5917,114.2352 C 572.5917,103.5848 581.2256,94.9510 591.8760,94.9510 C 592.5124,94.9510 593.1415,94.9818 593.7565,95.0415 
C 589.3014,92.0789 586.3686,87.0158 586.3686,81.2677 C 586.3686,72.1348 593.7723,64.7312 602.9052,64.7312 C 604.0982,64.7312 
605.2618,64.8575 606.3783,65.0965 C 605.6925,63.2527 605.3223,61.2507 605.3223,59.1622 C 605.3223,49.6103 613.0657,41.8670 
622.6176,41.8670 C 626.8175,41.8670 630.6677,43.3640 633.6637,45.8535 C 633.4195,44.7521 633.2966,43.5950 633.2966,42.4092 C 
633.2966,33.1286 640.8201,25.6051 650.1007,25.6051 C 654.3178,25.6051 658.1721,27.1586 661.1225,29.7244 C 663.2115,21.6932 
670.4947,15.7838 679.1580,15.7838 C 686.9363,15.7838 693.6019,20.5474 696.3956,27.3138 C 697.8748,19.7238 704.5592,13.9962 
712.5815,13.9962 C 721.0441,13.9962 728.0181,20.3700 728.9642,28.5739 C 731.9968,23.3768 737.6384,19.8814 744.0963,19.8814 C 
753.7686,19.8814 761.6096,27.7224 761.6096,37.3947 C 761.6096,38.5880 761.4903,39.7534 761.2639,40.8743 C 764.4091,37.0518 
769.1717,34.6140 774.5036,34.6140 C 783.9575,34.6140 791.6213,42.2778 791.6213,51.7317 C 791.6213,53.1057 791.4594,54.4418 
791.1548,55.7174 C 793.4209,54.4373 796.0442,53.7118 798.8369,53.7118 C 807.5525,53.7118 814.6180,60.7772 814.6180,69.4929 C 
814.6180,73.2233 813.3236,76.6514 811.1596,79.3524 C 812.5209,78.9990 813.9598,78.8147 815.4418,78.8147 C 825.1054,78.8147 
832.9393,86.6486 832.9393,96.3123 C 832.9393,100.1613 831.6965,103.7201 829.5905,106.6089 C 837.4784,107.4949 
843.5966,114.1747 843.5966,122.2835 C 843.5966,129.0843 839.2930,134.8800 833.2634,137.0947 C 840.8542,138.2968 
846.6547,144.8692 846.6547,152.7964 C 846.6547,159.5945 842.3889,165.3962 836.3907,167.6699 C 841.3705,170.1277 
844.7970,175.2637 844.7970,181.1999 C 844.7970,188.4050 839.7492,194.4310 833.0015,195.9335 C 837.8489,198.6798 
841.1235,203.8964 841.1235,209.8780 C 841.1235,218.7352 833.9433,225.9155 825.0860,225.9155 C 825.0112,225.9155 
824.9364,225.9149 824.8629,225.9139 C 826.2497,228.2646 827.0448,231.0022 827.0448,233.9254 C 827.0448,242.6384 
819.9815,249.7016 811.2686,249.7016 C 808.9379,249.7016 806.7254,249.1962 804.7362,248.2899 C 805.2289,249.7548 
805.4925,251.3293 805.4925,252.9654 C 805.4925,261.1993 798.8176,267.8742 790.5837,267.8742 C 787.9446,267.8742 
785.4657,267.1885 783.3163,265.9861 C 783.2238,273.6572 776.9800,279.8435 769.2912,279.8435 C 764.9006,279.8435 
760.9812,277.8262 758.4093,274.6680 C 758.4342,274.9917 758.4451,275.3256 758.4451,275.6621 C 758.4451,284.1063 
751.5997,290.9517 743.1555,290.9517 C 739.4778,290.9517 736.1034,289.6532 733.4658,287.4898 C 732.1500,294.2170 
726.2354,299.2797 719.1383,299.2797 C 713.6512,299.2797 708.8709,296.2534 706.3760,291.7798 C 705.5302,299.5670 
698.9329,305.6266 690.9204,305.6266 C 684.1717,305.6266 678.4271,301.3279 676.2763,295.3221 C 673.4586,298.5318 
669.3222,300.5630 664.7114,300.5630 C 656.2263,300.5630 649.3477,293.6844 649.3477,285.1993 C 649.3477,285.0129 
649.3511,284.8272 649.3576,284.6448 C 646.4793,289.1377 641.4462,292.1130 635.7183,292.1130 C 626.7790,292.1130 
619.5323,284.8663 619.5323,275.9270 C 619.5323,275.5453 619.5455,275.1667 619.5712,274.7955 C 618.0902,275.1965 
616.5178,275.4072 614.8961,275.4072 C 604.7773,275.4072 596.5744,267.2043 596.5744,257.0855 C 596.5744,251.7073 
598.8917,246.8704 602.5823,243.5187"/>
    <path stroke="#588853" fill="#588853" d="M 487.1016,109.3752 C 483.4789,113.6174 478.0912,116.3064 472.0755,116.3064 C 467.1939,116.3064 462.7259,114.5357 
459.2788,111.6017 C 459.2744,111.6827 459.2747,111.7595 459.2747,111.8364 C 459.2747,124.8639 448.7139,135.4247 
435.6864,135.4247 C 434.7402,135.4247 433.8071,135.3690 432.8973,135.2615 C 433.6957,137.7985 434.1189,140.5159 
434.1189,143.3321 C 434.1189,154.6571 427.2755,164.3838 417.5019,168.6009 C 418.2530,168.5514 419.0340,168.5191 
419.8226,168.5191 C 433.1072,168.5191 444.2545,177.6706 447.3020,190.0056 C 451.2576,187.0171 456.1945,185.2348 
461.5476,185.2348 C 470.3086,185.2348 477.9546,190.0086 482.0256,197.0956 C 484.7214,189.4007 492.0448,183.8906 
500.6551,183.8906 C 502.9329,183.8906 505.1207,184.2762 507.1529,184.9844 C 524.2752,180.8022 536.9473,165.3845 
536.9473,147.0070 C 536.9473,125.4017 519.4327,107.8871 497.8274,107.8871 C 494.1084,107.8871 490.5106,108.4061 
487.1025,109.3755 L 487.1016,109.3752 Z"/>
</svg>
