<?xml version="1.0" standalone="yes"?>
<svg xmlns="http://www.w3.org/2000/svg" width="48" height="48">
<path style="fill:#ffffff; stroke:none;" d="M0 0L0 44C3.9785 35.7375 4.63453 25.6413 8.06867 17C9.93133 12.313 12.8125 8.40203 17 13C19.4226 9.15018 20.8032 4.3847 22 0L0 0z"/>
<path style="fill:#030303; stroke:none;" d="M18 13C12.6062 7.0916 9.42454 12.1018 7.34491 18C3.97743 27.5507 0.806271 37.8685 0 48C4.26606 48 11.8387 49.4548 15.5046 46.9722C18.6235 44.8601 19.2774 38.8336 23.6011 38.3148C28.2573 37.7561 29.3314 44.9567 32.4151 46.9722C36.1792 49.4323 43.6604 48 48 48C47.6199 39.1704 45.4356 20.5263 37 16L33 23C31.3689 16.6982 30.351 9.98775 27.5316 4.05864C25.4963 -0.221706 22.5454 -0.0179176 20.4684 4.05864C19.8483 5.27562 19.4396 6.67237 19.0432 7.97531C18.5325 9.65393 18.2553 11.271 18 13z"/>
<path style="fill:#ffffff; stroke:none;" d="M26 0C28.0817 7.62654 30.4636 15.5221 33 23C34.802 20.8289 35.9065 18.6068 37 16C44.0366 21.7033 46.2892 34.2979 47 43C48.7687 38.7849 48 33.5355 48 29L48 0L26 0M16 48L32 48C29.3189 41.1986 23.4132 32.9552 17.9992 42.9907C17.1372 44.5886 16.5917 46.2936 16 48z"/>
</svg>
