<?xml version="1.0" encoding="UTF-8"?>
<svg xmlns="http://www.w3.org/2000/svg" xmlns:xlink="http://www.w3.org/1999/xlink" version="1.1" x="0" y="0" width="12in" height="12in" viewBox="0 0 864 864">
    <path stroke="#700190" fill-opacity="0.0000" d="M 704.1024,144.4968 C 704.7144,158.0616 687.5928,161.1792 680.3568,150.1920 C 675.5904,140.5656 679.4640,129.4488 
689.2056,126.0144 C 694.0765,123.7490 699.5201,122.4921 705.2573,122.4921 C 709.2876,122.4921 713.1730,123.1124 
716.8149,124.2601 C 719.2737,128.1368 720.6933,132.7258 720.6933,137.6464 C 720.6933,144.0065 718.3216,149.8127 
714.4144,154.2287 C 719.5200,158.0075 722.8253,164.0633 722.8253,170.8910 C 722.8253,175.2946 721.4504,179.3771 
719.1067,182.7321 C 716.4710,183.7904 713.5878,184.3698 710.5693,184.3698 C 701.4555,184.3698 693.5754,179.0871 
689.8253,171.4189 C 687.5301,179.0085 680.4863,184.5312 672.1526,184.5312 C 669.2784,184.5312 666.5578,183.8743 
664.1342,182.7034 C 659.8433,178.3338 657.1950,172.3518 657.1950,165.7512 C 657.1950,162.0775 658.0154,158.5953 
659.4818,155.4805 C 650.5735,154.0143 642.9481,148.7946 638.2627,141.5067 C 640.1137,130.6037 649.1154,122.1580 
660.2563,121.1515 C 659.8155,119.2896 659.5796,117.3183 659.5796,115.2919 C 659.5796,107.4176 663.1411,100.3750 
668.7409,95.6874 C 679.0352,96.3682 688.1752,101.2178 694.5114,108.5558 C 700.4083,101.1380 709.5185,96.3802 719.7399,96.3802 
C 720.4469,96.3802 721.1485,96.4030 721.8366,96.4473 C 727.9520,104.1160 731.6061,113.8313 731.6061,124.4001 C 
731.6061,124.5862 731.6049,124.7720 731.6027,124.9547 C 731.9309,124.9437 732.2766,124.9378 732.6238,124.9378 C 
742.7297,124.9378 751.6604,129.9700 757.0461,137.6647 C 755.0029,147.7305 748.3542,156.0932 739.4067,160.4829 C 
746.0272,165.4446 750.3160,173.3620 750.3160,182.2812 C 750.3160,185.0196 749.9117,187.6637 749.1614,190.1506 C 
742.5125,194.7200 734.4612,197.3950 725.7853,197.3950 C 722.9245,197.3950 720.1316,197.1042 717.4470,196.5530 C 
717.4513,196.5810 717.4514,196.6170 717.4514,196.6530 C 717.4514,208.9092 709.6889,219.3523 698.8171,223.3324 C 
687.7948,220.3108 678.8032,212.4860 674.2023,202.2637 C 668.9273,208.0690 661.3026,211.7243 652.8242,211.7243 C 
650.3670,211.7243 647.9815,211.4173 645.7117,210.8414 C 642.2619,204.4286 640.3085,197.0842 640.3085,189.2835 C 
640.3085,186.5120 640.5551,183.7980 641.0250,181.1766 C 639.8215,181.2714 638.5816,181.3195 637.3305,181.3195 C 
627.0802,181.3195 617.5843,178.0898 609.8058,172.5932 C 611.6505,161.4415 617.3176,151.6194 625.4034,144.4712 C 
615.7852,138.1992 609.3453,127.4635 609.0096,115.2080 C 615.0439,106.0764 625.3932,100.0635 637.1469,100.0635 C 
640.0691,100.0635 642.9045,100.4352 645.5996,101.1316 C 644.9675,98.7073 644.6392,96.1385 644.6392,93.4930 C 644.6392,82.4618 
650.3471,72.7637 658.9695,67.1918 C 672.1815,67.5379 683.9302,73.6916 691.7764,83.1880 C 697.2327,72.9623 708.0041,66.0133 
720.3985,66.0133 C 722.0831,66.0133 723.7377,66.1417 725.3429,66.3876 C 733.6543,74.4502 739.1967,85.3440 740.4014,97.4984 C 
743.3162,96.9492 746.3542,96.6584 749.4601,96.6584 C 757.9815,96.6584 765.9917,98.8474 772.9558,102.6921 C 773.5838,106.0665 
773.8967,109.5634 773.8967,113.1334 C 773.8967,121.7556 772.0713,129.9515 768.7891,137.3486 C 780.4496,140.7679 
789.3398,150.6320 791.3368,162.8057 C 788.7964,173.8759 780.1148,182.5553 769.0952,185.0857 C 772.1246,192.3190 
773.7969,200.3030 773.7969,208.6776 C 773.7969,212.0735 773.5219,215.4052 772.9962,218.6322 C 766.7263,222.2758 
759.4599,224.3505 751.7090,224.3505 C 746.9922,224.3505 742.4548,223.5822 738.2236,222.1666 C 738.2593,222.8257 
738.2769,223.5030 738.2769,224.1844 C 738.2769,236.0426 732.9528,246.6573 724.5648,253.7684 C 724.0945,253.7992 
723.6142,253.8092 723.1315,253.8092 C 709.6822,253.8092 698.0587,245.9919 692.5585,234.6564 C 688.6205,245.7161 
679.4220,254.2645 667.9886,257.3050 C 657.4768,252.9094 649.4529,243.8430 646.4773,232.7234 C 640.5521,238.7700 
632.2638,242.5390 623.0952,242.5390 C 619.1009,242.5390 615.2737,241.8236 611.7402,240.5162 C 607.9781,234.6022 
605.7979,227.5813 605.7979,220.0512 C 605.7979,215.3945 606.6317,210.9325 608.1557,206.8129 C 593.4065,206.7968 
580.2902,199.8119 571.9221,188.9743 C 574.4927,175.4055 580.9286,163.2549 590.0298,153.6569 C 578.5520,146.9630 
570.1059,135.6340 567.2353,122.2510 C 574.2507,109.4827 586.7265,100.1970 601.4876,97.5139 C 595.9684,89.0950 
592.7452,79.0044 592.7452,68.1611 C 592.7452,66.3757 592.8326,64.6107 593.0018,62.8857 C 601.0878,57.2247 610.9244,53.9071 
621.5360,53.9071 C 626.3275,53.9071 630.9610,54.5835 635.3344,55.8426 C 635.3277,55.7890 635.3276,55.7266 635.3276,55.6642 C 
635.3276,41.3242 642.5294,28.6662 653.5124,21.1106 C 667.0887,23.8833 679.1581,30.6595 688.4891,40.1391 C 696.8822,29.5135 
709.4834,22.3397 723.7694,21.1198 C 732.8470,29.2186 739.7266,39.7122 743.4356,51.5888 C 750.6560,48.9391 758.5230,47.4870 
766.7292,47.4870 C 770.5867,47.4870 774.3693,47.8079 778.0303,48.4208 C 783.3873,56.0826 786.5164,65.3839 786.5164,75.4161 C 
786.5164,78.4360 786.2329,81.3896 785.6937,84.2374 C 796.7972,85.1868 806.6527,90.4762 813.5697,98.3975 C 813.9458,100.6834 
814.1396,103.0522 814.1396,105.4663 C 814.1396,115.9352 810.4956,125.5529 804.4071,133.1200 C 813.3761,138.5657 
819.9454,147.5467 822.1698,158.1157 C 818.2132,169.0082 810.8590,178.2067 801.3993,184.4813 C 806.9352,191.0480 
810.2812,199.5545 810.2812,208.8425 C 810.2812,211.0384 810.0942,213.1905 809.7372,215.2721 C 803.2898,222.7329 
793.7619,227.4594 783.1301,227.4594 C 782.1588,227.4594 781.1968,227.4199 780.2550,227.3433 C 781.0761,230.1947 
781.5083,233.2305 781.5083,236.3672 C 781.5083,244.2853 778.7538,251.5601 774.1509,257.2853 C 771.3617,257.9554 
768.4355,258.2961 765.4298,258.2961 C 756.1857,258.2961 747.6943,255.0735 741.0180,249.6906 C 741.2694,251.2076 
741.4053,252.7943 741.4053,254.4128 C 741.4053,265.6554 734.8497,275.3668 725.3553,279.9317 C 725.3330,279.9360 
725.3234,279.9360 725.3138,279.9360 C 713.3362,279.9360 702.8290,273.6410 696.9209,264.1802 C 691.4575,274.0660 
681.7831,281.2939 670.3315,283.4599 C 659.4286,279.1960 651.1827,269.7394 648.6124,258.1581 C 642.4716,263.9641 
634.1659,267.5402 625.0249,267.5402 C 621.3419,267.5402 617.7945,266.9597 614.4763,265.8874 C 608.4983,258.9939 
604.8754,249.9983 604.8754,240.1565 C 604.8754,235.6227 605.6442,231.2686 607.0560,227.2246"/>
    <path stroke="#588853" fill="#588853" d="M 526.3056,181.6344 C 521.7778,183.9687 516.6317,185.2806 511.1793,185.2806 C 498.5100,185.2806 487.4950,178.1976 
481.8795,167.7779 C 477.1471,151.2674 469.3374,136.1911 459.1356,123.0665 C 462.1860,123.3922 465.3052,123.5180 
468.4537,123.5180 C 480.6035,123.5180 492.3158,121.6451 503.3178,118.1724 C 506.8279,116.7238 510.7243,115.9446 
514.8027,115.9446 C 532.1082,115.9446 546.1370,129.9734 546.1370,147.2788 C 546.1370,147.5765 546.1328,147.8732 
546.1247,148.1648 C 546.1346,148.2207 546.1347,148.2735 546.1347,148.3263 C 546.1347,162.7103 538.1190,175.2221 
526.3133,181.6370 L 526.3056,181.6344 Z"/>
</svg>
