<?xml version="1.0" encoding="UTF-8"?>
<svg xmlns="http://www.w3.org/2000/svg" xmlns:xlink="http://www.w3.org/1999/xlink" version="1.1" x="0" y="0" width="12in" height="12in" viewBox="0 0 864 864">
    <path stroke="#588853" fill="#588853" d="M 470.6784,110.0448 C 465.8110,115.7442 458.5724,119.3569 450.4900,119.3569 C 443.9401,119.3569 437.9444,116.9844 
433.3154,113.0519 C 433.3258,113.1414 433.3263,113.2446 433.3263,113.3480 C 433.3263,130.8690 419.1227,145.0727 
401.6016,145.0727 C 400.3337,145.0727 399.0832,144.9983 397.8638,144.8548 C 398.9410,148.2257 399.5096,151.8771 
399.5096,155.6614 C 399.5096,170.8779 390.3166,183.9473 377.1862,189.6166 C 378.1857,189.5316 379.2335,189.4884 
380.2913,189.4884 C 398.1479,189.4884 413.1307,201.7927 417.2211,218.3751 C 422.5321,214.3634 429.1603,211.9710 
436.3472,211.9710 C 448.1113,211.9710 458.3782,218.3811 463.8447,227.8972 C 467.4835,217.5521 477.3219,210.1511 
488.8889,210.1511 C 491.9498,210.1511 494.8896,210.6693 497.6204,211.6211 C 520.6299,206.0032 537.6597,185.2843 
537.6597,160.5878 C 537.6597,131.5544 514.1234,108.0182 485.0900,108.0182 C 480.0904,108.0182 475.2539,108.7161 
470.6724,110.0198 L 470.6784,110.0448 Z"/>
    <path stroke="#e50404" fill-opacity="0.0000" d="M 698.9904,155.6640 C 699.7176,171.6768 679.5000,175.3560 670.9608,162.3888 C 665.3304,151.0272 669.9096,137.9016 
681.4080,133.8480 C 685.3110,130.9995 690.1214,129.3201 695.3241,129.3201 C 708.3897,129.3201 718.9815,139.9118 
718.9815,152.9775 C 718.9815,157.8073 717.5341,162.2991 715.0499,166.0421 C 716.6891,169.2400 717.6117,172.8750 
717.6117,176.7254 C 717.6117,189.7519 707.0516,200.3120 694.0251,200.3120 C 688.3698,200.3120 683.1793,198.3217 
679.1162,195.0034 C 676.3638,196.1176 673.3520,196.7208 670.1994,196.7208 C 656.8430,196.7208 646.0155,185.8934 
646.0155,172.5370 C 646.0155,171.2069 646.1229,169.9020 646.3282,168.6379 C 637.2565,166.4069 630.5461,158.2319 
630.5461,148.4895 C 630.5461,138.4168 637.7192,130.0195 647.2296,128.1285 C 647.1468,127.2863 647.0984,126.4230 
647.0984,125.5485 C 647.0984,112.7441 657.4785,102.3640 670.2830,102.3640 C 677.2018,102.3640 683.4127,105.3946 
687.6606,110.2008 C 692.7389,105.5953 699.4690,102.7975 706.8526,102.7975 C 722.2292,102.7975 734.7718,114.9312 
735.4278,130.1410 C 746.3940,132.6604 754.5625,142.4717 754.5625,154.1908 C 754.5625,162.8758 750.0762,170.5129 
743.2954,174.9107 C 746.9907,179.4833 749.2100,185.3105 749.2100,191.6560 C 749.2100,206.3644 737.2865,218.2879 
722.5781,218.2879 C 719.8496,218.2879 717.2169,217.8776 714.7443,217.1171 C 711.8265,229.8814 700.4052,239.3911 
686.7627,239.3911 C 676.7006,239.3911 667.8467,234.2179 662.7163,226.3870 C 658.6657,228.8633 653.8943,230.2945 
648.7887,230.2945 C 634.0239,230.2945 622.0547,218.3253 622.0547,203.5605 C 622.0547,203.0826 622.0672,202.6076 
622.0917,202.1414 C 607.2928,200.9192 595.6766,188.5337 595.6766,173.4350 C 595.6766,165.7386 598.6950,158.7471 
603.6125,153.5797 C 599.9079,148.4785 597.7255,142.2039 597.7255,135.4196 C 597.7255,118.3233 611.5848,104.4640 
628.6811,104.4640 C 629.1003,104.4640 629.5175,104.4723 629.9273,104.4886 C 632.8467,87.5707 647.5750,74.7239 
665.3039,74.7239 C 672.8036,74.7239 679.7663,77.0228 685.5250,80.9537 C 691.5317,75.0494 699.7740,71.3997 708.8688,71.3997 C 
725.7288,71.3997 739.6594,83.9422 741.8376,100.1952 C 743.6527,99.8739 745.5434,99.7026 747.4741,99.7026 C 765.1058,99.7026 
779.3992,113.9959 779.3992,131.6276 C 779.3992,137.3043 777.9176,142.6350 775.3210,147.2520 C 786.8479,152.6614 
794.8017,164.3513 794.8017,177.8989 C 794.8017,191.4479 786.8463,203.1387 775.3552,208.5535 C 778.2434,213.0683 
779.9250,218.4436 779.9250,224.2117 C 779.9250,240.2512 766.9223,253.2539 750.8828,253.2539 C 747.9824,253.2539 
745.1814,252.8287 742.5452,252.0393 C 738.8279,266.8373 725.4455,277.7733 709.5088,277.7733 C 701.2007,277.7733 
693.5868,274.8011 687.6724,269.8623 C 682.1767,278.9263 672.2196,284.9818 660.8482,284.9818 C 646.4425,284.9818 
634.3067,275.2636 630.6412,262.0333 C 626.0150,264.9762 620.5126,266.6894 614.6101,266.6894 C 598.1241,266.6894 
584.7596,253.3249 584.7596,236.8389 C 584.7596,234.2042 585.1009,231.6493 585.7397,229.2236 C 585.2617,229.2470 
584.7790,229.2570 584.2940,229.2570 C 565.2141,229.2570 549.7469,213.7897 549.7469,194.7099 C 549.7469,183.0575 
555.5157,172.7526 564.3525,166.4958 C 554.4405,159.9978 547.9022,148.7896 547.9022,136.0542 C 547.9022,118.1386 
560.8415,103.2451 577.8733,100.2110 C 574.2032,94.8881 572.0435,88.4245 572.0435,81.4564 C 572.0435,63.2312 586.8179,48.4568 
605.0431,48.4568 C 609.5737,48.4568 613.8911,49.3698 617.8168,51.0201 C 619.6961,33.2296 634.7421,19.3792 653.0230,19.3792 C 
664.1289,19.3792 674.0409,24.4910 680.5342,32.4898 C 686.7563,22.4871 697.8472,15.8324 710.4925,15.8324 C 728.2487,15.8324 
742.9403,28.9535 745.3985,46.0176 C 750.4972,42.9343 756.4867,41.1518 762.8925,41.1518 C 781.5544,41.1518 796.6828,56.2802 
796.6828,74.9421 C 796.6828,78.2769 796.1997,81.4989 795.3020,84.5341 C 813.2170,85.3215 827.4947,100.0943 827.4947,118.2018 
C 827.4947,127.6255 823.6277,136.1459 817.3939,142.2629 C 827.6205,148.0807 834.5081,159.0723 834.5081,171.6725 C 
834.5081,185.6888 825.9855,197.7145 813.8442,202.8482 C 819.7511,208.2214 823.4694,215.9748 823.4694,224.5966 C 
823.4694,240.8036 810.3311,253.9419 794.1241,253.9419 C 792.3295,253.9419 790.5725,253.7808 788.8758,253.4739 C 
788.8840,253.5842 788.8847,253.7090 788.8847,253.8340 C 788.8847,270.6557 775.2481,284.2923 758.4264,284.2923 C 
752.6087,284.2923 747.1720,282.6613 742.5499,279.8323 C 739.5377,294.1974 726.8130,304.9621 711.5740,304.9621 C 
703.4912,304.9621 696.1158,301.9337 690.5204,296.9497 C 685.1891,306.3774 675.0722,312.7386 663.4696,312.7386 C 
649.1345,312.7386 637.0673,303.0283 633.4888,289.8343 C 628.1475,293.9121 621.4603,296.3457 614.2047,296.3457 C 
596.6685,296.3457 582.4527,282.1299 582.4527,264.5937 C 582.4527,258.7976 584.0057,253.3642 586.7174,248.6887"/>
</svg>
