<?xml version="1.0" encoding="UTF-8"?>
<svg xmlns="http://www.w3.org/2000/svg" xmlns:xlink="http://www.w3.org/1999/xlink" version="1.1" x="0" y="0" width="12in" height="12in" viewBox="0 0 864 864">
    <path stroke="#1e78e8" fill-opacity="0.0000" d="M 711.4968,146.2608 C 712.2240,162.2736 692.0064,165.9528 683.4672,152.9856 C 677.8368,141.6240 682.4160,128.5056 
693.9144,124.4448 C 713.1024,116.5104 734.7384,136.8288 727.5528,156.6360 C 721.3248,171.9792 706.7736,181.5192 
689.7960,181.0368 C 660.9672,176.4216 644.5224,142.3152 659.7504,118.7208 C 669.9312,104.1768 684.9504,96.5880 
702.9720,95.5224 C 737.6832,97.3152 763.5384,132.6096 755.7912,165.5064 C 745.3512,202.7592 707.9688,225.8136 
668.5632,216.2880 C 636.9984,206.9136 614.5560,176.6088 616.1184,144.1728 C 620.2368,86.5080 677.1024,49.1760 
733.4208,68.9184 C 780.7896,87.3360 807.3288,139.8456 793.3320,186.5376 C 771.9336,242.8560 711.4392,274.0680 
650.6280,259.4304 C 591.7248,238.3200 557.4312,175.6224 572.1912,117.2304 C 589.9896,53.7768 650.6424,13.4712 
717.6024,20.4048 C 789.0192,32.5008 841.1760,99.0720 833.0400,170.2872 C 825.6888,230.2704 779.0688,276.9624 
719.0784,283.8816 C 659.2032,296.6616 594.7344,266.2704 564.5376,209.5272 C 560.5272,196.7760 577.1448,188.4744 
585.2160,199.8360"/>
    <path stroke="#588853" fill="#588853" d="M 466.3656,155.0448 C 476.2718,163.9079 489.3516,169.2963 503.6901,169.2963 C 534.6202,169.2963 559.6940,144.2225 
559.6940,113.2924 C 559.6940,112.7504 559.6863,112.2102 559.6710,111.6719 C 549.8027,103.3457 537.0425,98.3245 
523.1096,98.3245 C 491.7781,98.3245 466.3770,123.7159 466.3615,155.0438 L 466.3656,155.0448 Z"/>
</svg>
